<svg width="50" height="30" viewBox="0 0 50 30" xmlns="http://www.w3.org/2000/svg">
  <!-- Single curly leaf - right side (mirrored) with stem -->
  <g stroke="#64b5f6" fill="#64b5f6" stroke-width="2" stroke-linecap="round" stroke-linejoin="round">
    <!-- Stem -->
    <path d="M 2 15 L 12 15" fill="none" stroke-width="1.8"/>

    <!-- Leaf outline with curl (mirrored) -->
    <path d="M 12 15 Q 17 12, 22 10 Q 27 8, 32 9 Q 37 10, 39 13 Q 41 16, 39 19 Q 37 22, 32 23 Q 27 24, 22 22 Q 17 20, 12 15"
          fill="#64b5f6" opacity="0.25" stroke="none"/>
    <path d="M 12 15 Q 17 12, 22 10 Q 27 8, 32 9 Q 37 10, 39 13 Q 41 16, 39 19 Q 37 22, 32 23 Q 27 24, 22 22 Q 17 20, 12 15"
          fill="none"/>

    <!-- Central rib (vein) -->
    <path d="M 12 15 Q 19 15, 27 16 Q 35 17, 39 16" fill="none" stroke-width="1.5" opacity="0.8"/>

    <!-- Side veins (mirrored) -->
    <path d="M 19 15 Q 21 12, 23 11" fill="none" stroke-width="1" opacity="0.6"/>
    <path d="M 19 15 Q 21 18, 23 19" fill="none" stroke-width="1" opacity="0.6"/>
    <path d="M 27 16 Q 29 13, 31 12" fill="none" stroke-width="1" opacity="0.6"/>
    <path d="M 27 16 Q 29 19, 31 20" fill="none" stroke-width="1" opacity="0.6"/>
  </g>
</svg>
