<svg width="120" height="60" viewBox="0 0 120 60" xmlns="http://www.w3.org/2000/svg">
  <!-- Botanical ornament - right side with realistic leaves (mirrored) -->
  <g stroke="#64b5f6" fill="#64b5f6" stroke-width="2.5" stroke-linecap="round" stroke-linejoin="round">
    <!-- Main stem with subtle curve (mirrored) -->
    <path d="M 110 30 Q 85 28, 60 30 Q 35 32, 10 30" fill="none" stroke-width="2"/>

    <!-- Right leaf pair (closer, larger) -->
    <path d="M 102 30 Q 108 22, 106 18 Q 104 22, 102 30" fill="#64b5f6" opacity="0.3"/>
    <path d="M 102 30 Q 108 38, 106 42 Q 104 38, 102 30" fill="#64b5f6" opacity="0.3"/>
    <path d="M 102 30 Q 108 22, 106 18 Q 104 22, 102 30" fill="none"/>
    <path d="M 102 30 Q 108 38, 106 42 Q 104 38, 102 30" fill="none"/>

    <!-- Second leaf pair (medium) -->
    <path d="M 85 28 Q 92 19, 90 14 Q 88 19, 85 28" fill="#64b5f6" opacity="0.3"/>
    <path d="M 85 28 Q 92 37, 90 42 Q 88 37, 85 28" fill="#64b5f6" opacity="0.3"/>
    <path d="M 85 28 Q 92 19, 90 14 Q 88 19, 85 28" fill="none"/>
    <path d="M 85 28 Q 92 37, 90 42 Q 88 37, 85 28" fill="none"/>

    <!-- Third leaf pair (asymmetric positioning) -->
    <path d="M 68 30 Q 74 21, 72 16 Q 70 21, 68 30" fill="#64b5f6" opacity="0.3"/>
    <path d="M 68 30 Q 74 39, 72 44 Q 70 39, 68 30" fill="#64b5f6" opacity="0.3"/>
    <path d="M 68 30 Q 74 21, 72 16 Q 70 21, 68 30" fill="none"/>
    <path d="M 68 30 Q 74 39, 72 44 Q 70 39, 68 30" fill="none"/>

    <!-- Fourth leaf pair (smaller, further) -->
    <path d="M 50 31 Q 55 24, 53 20 Q 51 24, 50 31" fill="#64b5f6" opacity="0.3"/>
    <path d="M 50 31 Q 55 38, 53 42 Q 51 38, 50 31" fill="#64b5f6" opacity="0.3"/>
    <path d="M 50 31 Q 55 24, 53 20 Q 51 24, 50 31" fill="none"/>
    <path d="M 50 31 Q 55 38, 53 42 Q 51 38, 50 31" fill="none"/>

    <!-- Fifth leaf pair (smallest) -->
    <path d="M 32 30 Q 36 25, 35 22 Q 34 25, 32 30" fill="#64b5f6" opacity="0.3"/>
    <path d="M 32 30 Q 36 35, 35 38 Q 34 35, 32 30" fill="#64b5f6" opacity="0.3"/>
    <path d="M 32 30 Q 36 25, 35 22 Q 34 25, 32 30" fill="none"/>
    <path d="M 32 30 Q 36 35, 35 38 Q 34 35, 32 30" fill="none"/>
  </g>
</svg>
