<svg width="120" height="60" viewBox="0 0 120 60" xmlns="http://www.w3.org/2000/svg">
  <!-- Botanical ornament - left side -->
  <g stroke="#64b5f6" fill="#64b5f6" stroke-width="2.5" stroke-linecap="round" stroke-linejoin="round">
    <!-- Main stem -->
    <path d="M 10 30 Q 40 30, 70 30 Q 90 30, 110 30" fill="none"/>

    <!-- Leaves on left -->
    <path d="M 15 30 Q 10 20, 18 18" fill="none"/>
    <path d="M 15 30 Q 10 40, 18 42" fill="none"/>

    <!-- Leaves in middle-left -->
    <path d="M 35 30 Q 28 18, 36 15" fill="none"/>
    <path d="M 35 30 Q 28 42, 36 45" fill="none"/>

    <!-- Leaves in middle-right -->
    <path d="M 55 30 Q 48 20, 56 17" fill="none"/>
    <path d="M 55 30 Q 48 40, 56 43" fill="none"/>

    <!-- Leaves on right -->
    <path d="M 75 30 Q 68 22, 76 19" fill="none"/>
    <path d="M 75 30 Q 68 38, 76 41" fill="none"/>

    <!-- Small decorative buds -->
    <circle cx="18" cy="18" r="2.5" opacity="0.8"/>
    <circle cx="18" cy="42" r="2.5" opacity="0.8"/>
    <circle cx="36" cy="15" r="2.5" opacity="0.8"/>
    <circle cx="36" cy="45" r="2.5" opacity="0.8"/>
  </g>
</svg>
