<svg width="120" height="60" viewBox="0 0 120 60" xmlns="http://www.w3.org/2000/svg">
  <!-- Botanical ornament - left side with realistic leaves -->
  <g stroke="#64b5f6" fill="#64b5f6" stroke-width="2.5" stroke-linecap="round" stroke-linejoin="round">
    <!-- Main stem with subtle curve -->
    <path d="M 10 30 Q 35 28, 60 30 Q 85 32, 110 30" fill="none" stroke-width="2"/>

    <!-- Left leaf pair (closer, larger) -->
    <path d="M 18 30 Q 12 22, 14 18 Q 16 22, 18 30" fill="#64b5f6" opacity="0.3"/>
    <path d="M 18 30 Q 12 38, 14 42 Q 16 38, 18 30" fill="#64b5f6" opacity="0.3"/>
    <path d="M 18 30 Q 12 22, 14 18 Q 16 22, 18 30" fill="none"/>
    <path d="M 18 30 Q 12 38, 14 42 Q 16 38, 18 30" fill="none"/>

    <!-- Second leaf pair (medium) -->
    <path d="M 35 28 Q 28 19, 30 14 Q 32 19, 35 28" fill="#64b5f6" opacity="0.3"/>
    <path d="M 35 28 Q 28 37, 30 42 Q 32 37, 35 28" fill="#64b5f6" opacity="0.3"/>
    <path d="M 35 28 Q 28 19, 30 14 Q 32 19, 35 28" fill="none"/>
    <path d="M 35 28 Q 28 37, 30 42 Q 32 37, 35 28" fill="none"/>

    <!-- Third leaf pair (asymmetric positioning) -->
    <path d="M 52 30 Q 46 21, 48 16 Q 50 21, 52 30" fill="#64b5f6" opacity="0.3"/>
    <path d="M 52 30 Q 46 39, 48 44 Q 50 39, 52 30" fill="#64b5f6" opacity="0.3"/>
    <path d="M 52 30 Q 46 21, 48 16 Q 50 21, 52 30" fill="none"/>
    <path d="M 52 30 Q 46 39, 48 44 Q 50 39, 52 30" fill="none"/>

    <!-- Fourth leaf pair (smaller, further) -->
    <path d="M 70 31 Q 65 24, 67 20 Q 69 24, 70 31" fill="#64b5f6" opacity="0.3"/>
    <path d="M 70 31 Q 65 38, 67 42 Q 69 38, 70 31" fill="#64b5f6" opacity="0.3"/>
    <path d="M 70 31 Q 65 24, 67 20 Q 69 24, 70 31" fill="none"/>
    <path d="M 70 31 Q 65 38, 67 42 Q 69 38, 70 31" fill="none"/>

    <!-- Fifth leaf pair (smallest) -->
    <path d="M 88 30 Q 84 25, 85 22 Q 86 25, 88 30" fill="#64b5f6" opacity="0.3"/>
    <path d="M 88 30 Q 84 35, 85 38 Q 86 35, 88 30" fill="#64b5f6" opacity="0.3"/>
    <path d="M 88 30 Q 84 25, 85 22 Q 86 25, 88 30" fill="none"/>
    <path d="M 88 30 Q 84 35, 85 38 Q 86 35, 88 30" fill="none"/>
  </g>
</svg>
